<?xml version="1.0" encoding="utf-8"?>
<!-- Generator: Adobe Illustrator 27.8.1, SVG Export Plug-In . SVG Version: 6.00 Build 0)  -->
<svg version="1.1" xmlns="http://www.w3.org/2000/svg" xmlns:xlink="http://www.w3.org/1999/xlink" x="0px" y="0px"
	 viewBox="0 0 500 500" style="enable-background:new 0 0 500 500;" xml:space="preserve">
<style type="text/css">
	.st0{display:none;}
	.st1{display:inline;fill:url(#SVGID_1_);}
	.st2{fill:url(#SVGID_00000075156992336874391110000004177139591007506561_);}
	.st3{fill:url(#SVGID_00000136411537588025991160000007856769841352381837_);}
	.st4{fill:url(#SVGID_00000060007008167503515480000013735691203650313145_);}
	.st5{fill:url(#SVGID_00000026148924882406545470000010934504991382872194_);}
	.st6{fill:url(#SVGID_00000093156745081514765490000010662862514079890048_);}
	.st7{fill:url(#SVGID_00000008123011040031115370000015425795361762376836_);}
	.st8{fill:url(#SVGID_00000008841604152471851850000004638005987651120554_);}
	.st9{fill:url(#SVGID_00000092447317269638817440000011285090518095509669_);}
	.st10{fill:url(#SVGID_00000053503625562172632880000017805846181391692217_);}
	.st11{fill:url(#SVGID_00000057856900008612602390000009347232620073591967_);}
	.st12{fill:url(#SVGID_00000071549113518467771560000004608858422921721517_);}
	.st13{fill:url(#SVGID_00000039845178538354713250000006141702137450704060_);}
	.st14{fill:url(#SVGID_00000064336573861327842820000015178566056574846088_);}
	.st15{fill:url(#SVGID_00000125591400484592864000000010259615202389270202_);}
	.st16{fill:url(#SVGID_00000144303249325581360040000004826343619386445192_);}
	.st17{fill:url(#SVGID_00000064348023471934417340000000556560470661964711_);}
	.st18{fill:url(#SVGID_00000103232704095334565330000015678261215298081183_);}
	.st19{fill:url(#SVGID_00000044866552435708544120000007729565716053582498_);}
	.st20{fill:url(#SVGID_00000182505138963214726960000003253779017566167180_);}
	.st21{fill:url(#SVGID_00000042016711032522574950000009122436820053446797_);}
	.st22{fill:url(#SVGID_00000023282455554730178440000008242522495915921079_);}
	.st23{fill:url(#SVGID_00000075151722655225629880000018050186911761687948_);}
	.st24{fill:url(#SVGID_00000131358928003528166220000013079074124113014411_);}
	.st25{fill:url(#SVGID_00000140733794147821379210000013109878555371643800_);}
</style>
<g id="BACKGROUND" class="st0">
	<radialGradient id="SVGID_1_" cx="250" cy="250" r="250" gradientUnits="userSpaceOnUse">
		<stop  offset="0" style="stop-color:#FFFFFF"/>
		<stop  offset="1" style="stop-color:#E3E3E3"/>
	</radialGradient>
	<rect class="st1" width="500" height="500"/>
</g>
<g id="OBJECTS">
	<g>
		<g>
			
				<linearGradient id="SVGID_00000040532464007399942100000009799101640648881581_" gradientUnits="userSpaceOnUse" x1="365.6129" y1="368.399" x2="365.6129" y2="3.8944">
				<stop  offset="1.281420e-03" style="stop-color:#333399"/>
				<stop  offset="1" style="stop-color:#FF00CC"/>
			</linearGradient>
			<path style="fill:url(#SVGID_00000040532464007399942100000009799101640648881581_);" d="M404.3,243.4
				c26.6-36.1,34.3-85.3,24.9-129.1c-2.4,7.6-5.3,15.8-7.7,23.4c7.3-49.6-15.2-104.3-55.8-133.8c-40.6,29.5-63.1,84.2-55.8,133.8
				c-2.4-7.6-5.3-15.8-7.7-23.4c-9.4,43.9-1.7,93,24.9,129.1c-4.7-5.5-11.7-9.3-18.6-11.7c17.9,17.5,21,44.7,23.8,69.5
				c2.9,24.9-1.4,52.3,18.8,67.2h11.2c-0.3-5.3-0.6-10.5-0.8-15.8c-1.3-30.1-2.1-61.7-1.4-91.8c0.7-29.2,2-107.5,2.5-137.7
				c0.7-30.6,1.2-61.2,2-91.8h1c1.9,70.6,2.9,158.6,4.5,229.5c0.6,35.7-0.1,71.8-2.3,107.6h10.9c20.2-14.8,17.4-42.3,20.3-67.2
				c2.9-24.9,5.9-52.1,23.8-69.5C415.9,234,409,237.9,404.3,243.4z"/>
			
				<linearGradient id="SVGID_00000090978474327686451220000000550420281158013359_" gradientUnits="userSpaceOnUse" x1="331.1695" y1="363.217" x2="331.1695" y2="5.0619">
				<stop  offset="1.281420e-03" style="stop-color:#333399"/>
				<stop  offset="1" style="stop-color:#FF00CC"/>
			</linearGradient>
			<path style="fill:url(#SVGID_00000090978474327686451220000000550420281158013359_);" d="M309.8,137.7
				c-2.4-7.6-5.3-15.8-7.7-23.4c-9.4,43.9-1.7,93,24.9,129.1c-4.7-5.5-11.7-9.3-18.6-11.7c17.9,17.5,21,44.7,23.8,69.5
				c2.6,22.2-0.5,46.5,13.1,62c-3.8-10.6-4.9-22.3-4.9-33.6c0-14.6,1.4-29.3,0.1-43.9c-1.3-14.6-5.2-30.2-15.4-40.7
				c3.3,1.7,8.1,2.6,11.5,4.3c-20.4-32.7-30.6-69.9-29.9-108.4c4.3,7.5,9.7,14.3,16.4,19.8c-11.6-54.4,4.1-113.9,40.8-155.7
				C324.5,34.8,302.6,88.7,309.8,137.7z"/>
			
				<linearGradient id="SVGID_00000050629701770234608760000012034975360116915852_" gradientUnits="userSpaceOnUse" x1="359.6766" y1="368.3988" x2="359.6766" y2="31.2655">
				<stop  offset="0" style="stop-color:#58236B"/>
				<stop  offset="0.6411" style="stop-color:#F6DEFF"/>
				<stop  offset="1" style="stop-color:#58236B"/>
			</linearGradient>
			<path style="fill:url(#SVGID_00000050629701770234608760000012034975360116915852_);" d="M360,260.8c0.7-29.2,2-107.5,2.5-137.7
				c0.7-30.6,1.2-61.2,2-91.8c0,0-20.3,136.1-2.2,337.1c-0.3-5.3-0.6-10.5-0.8-15.8C360.1,322.5,359.4,290.9,360,260.8z"/>
			
				<linearGradient id="SVGID_00000050660852936492600960000010754013365938298760_" gradientUnits="userSpaceOnUse" x1="400.0692" y1="360.2169" x2="400.0692" y2="5.0812">
				<stop  offset="0" style="stop-color:#58236B"/>
				<stop  offset="0.6411" style="stop-color:#F6DEFF"/>
				<stop  offset="1" style="stop-color:#58236B"/>
			</linearGradient>
			<path style="fill:url(#SVGID_00000050660852936492600960000010754013365938298760_);" d="M404.3,243.4
				c26.6-36.1,34.3-85.2,24.9-129.1c-2.4,7.6-5.3,15.8-7.7,23.4c0,0,0,0,0,0c0,0,0,0,0,0c1.8-12.4,1.8-25.1,0.1-37.7
				c0-0.1,0-0.2,0-0.2c-0.2-1.5-0.4-2.9-0.7-4.4c0-0.2-0.1-0.4-0.1-0.6c-0.2-1.3-0.5-2.7-0.8-4c-0.1-0.3-0.1-0.7-0.2-1
				c-0.3-1.2-0.5-2.4-0.8-3.6c-0.1-0.4-0.2-0.8-0.3-1.3c-0.3-1.1-0.5-2.2-0.8-3.3c-0.1-0.5-0.3-1-0.4-1.5c-0.3-1-0.6-2-0.9-3
				c-0.2-0.6-0.4-1.2-0.6-1.8c-0.3-0.9-0.6-1.8-0.9-2.7c-0.2-0.7-0.5-1.3-0.7-2c-0.3-0.8-0.6-1.6-0.9-2.4c-0.3-0.7-0.6-1.5-0.9-2.2
				c-0.3-0.7-0.6-1.4-0.9-2.2c-0.3-0.8-0.7-1.6-1-2.4c-0.3-0.6-0.5-1.3-0.8-1.9c-0.4-0.9-0.8-1.7-1.2-2.5c-0.3-0.6-0.5-1.1-0.8-1.7
				c-0.4-0.9-0.9-1.8-1.3-2.7c-0.3-0.5-0.5-1-0.8-1.5c-0.5-0.9-1-1.9-1.5-2.8c-0.2-0.4-0.5-0.9-0.7-1.3c-0.5-1-1.1-1.9-1.7-2.9
				c-0.2-0.4-0.5-0.8-0.7-1.2c-0.6-1-1.2-2-1.9-2.9c-0.2-0.3-0.4-0.7-0.7-1c-0.7-1-1.3-2-2-3c-0.2-0.3-0.4-0.6-0.6-0.9
				c-0.7-1-1.4-2-2.2-3c-0.2-0.3-0.4-0.5-0.6-0.8c-0.8-1-1.5-2-2.3-3c-0.2-0.2-0.4-0.4-0.5-0.7c-0.8-1-1.6-2-2.5-3
				c-0.2-0.2-0.3-0.4-0.5-0.6c-0.9-1-1.7-2-2.6-2.9c-0.2-0.2-0.3-0.3-0.5-0.5c-0.9-1-1.8-1.9-2.8-2.9c-0.2-0.2-0.3-0.3-0.5-0.5
				c-0.9-1-1.9-1.9-2.9-2.8c-0.1-0.1-0.3-0.3-0.4-0.4c-1-0.9-2-1.8-3-2.7c-0.2-0.1-0.3-0.3-0.5-0.4c-1-0.9-2.1-1.8-3.1-2.6
				c-0.2-0.1-0.3-0.3-0.5-0.4c-1.1-0.8-2.1-1.7-3.2-2.5c-0.1-0.1-0.2-0.1-0.3-0.2c36.7,41.8,52.4,101.2,40.8,155.7
				c6.7-5.5,12.2-12.3,16.4-19.8c0.7,38.5-9.5,75.8-29.9,108.4c3.3-1.7,8.1-2.6,11.5-4.3c-10.2,10.5-14,26.1-15.4,40.7
				c-1.3,14.6,0.2,29.2,0.1,43.9c0,10.3-0.9,20.8-3.9,30.6c11.3-15.5,9.8-38.2,12.2-59c2.9-24.9,5.9-52.1,23.8-69.5
				C415.9,234,409,237.9,404.3,243.4C404.3,243.4,404.3,243.4,404.3,243.4C404.3,243.4,404.3,243.4,404.3,243.4z"/>
			
				<linearGradient id="SVGID_00000132051141580240900750000012119861439930487697_" gradientUnits="userSpaceOnUse" x1="95.6932" y1="368.3988" x2="95.6932" y2="31.2655" gradientTransform="matrix(-1 0 0 1 466.1593 0)">
				<stop  offset="1.281420e-03" style="stop-color:#333399"/>
				<stop  offset="1" style="stop-color:#FF00CC"/>
			</linearGradient>
			<path style="fill:url(#SVGID_00000132051141580240900750000012119861439930487697_);" d="M370.1,260.8
				c-0.7-29.2-2-107.5-2.5-137.7c-0.7-30.6-1.2-61.2-2-91.8c0,0,20.3,136.1,2.2,337.1c0.3-5.3,0.6-10.5,0.8-15.8
				C370,322.5,370.8,290.9,370.1,260.8z"/>
			<g>
				
					<linearGradient id="SVGID_00000101789866784694693510000011400353229812682685_" gradientUnits="userSpaceOnUse" x1="324.3855" y1="125.9879" x2="324.3855" y2="65.1848">
					<stop  offset="0" style="stop-color:#000000"/>
					<stop  offset="0.5181" style="stop-color:#A8A8A8"/>
					<stop  offset="1" style="stop-color:#000000"/>
				</linearGradient>
				<path style="fill:url(#SVGID_00000101789866784694693510000011400353229812682685_);" d="M319.5,126c-1.2-20.6,2.3-41.6,10-60.8
					C323.8,85,320.4,105.4,319.5,126L319.5,126z"/>
				
					<linearGradient id="SVGID_00000178166824896382871390000016261343828874745762_" gradientUnits="userSpaceOnUse" x1="314.0113" y1="214.3644" x2="314.0113" y2="171.6192">
					<stop  offset="0" style="stop-color:#000000"/>
					<stop  offset="0.5181" style="stop-color:#A8A8A8"/>
					<stop  offset="1" style="stop-color:#000000"/>
				</linearGradient>
				<path style="fill:url(#SVGID_00000178166824896382871390000016261343828874745762_);" d="M319.4,214.4
					c-6.2-13.4-9.9-28-10.8-42.7C311.6,185.6,315.3,200.6,319.4,214.4L319.4,214.4z"/>
				
					<linearGradient id="SVGID_00000167383284064631567200000014470883995284734872_" gradientUnits="userSpaceOnUse" x1="341.1816" y1="309.8048" x2="341.1816" y2="285.7204">
					<stop  offset="0" style="stop-color:#000000"/>
					<stop  offset="0.5181" style="stop-color:#A8A8A8"/>
					<stop  offset="1" style="stop-color:#000000"/>
				</linearGradient>
				<path style="fill:url(#SVGID_00000167383284064631567200000014470883995284734872_);" d="M341,309.8c-0.8-8.1-0.7-16-0.3-24.1
					C342.5,293.6,342.3,301.8,341,309.8L341,309.8z"/>
			</g>
			
				<linearGradient id="SVGID_00000064327259421422110780000014742400962212222080_" gradientUnits="userSpaceOnUse" x1="374.4358" y1="223.0968" x2="374.4358" y2="113.3924">
				<stop  offset="0" style="stop-color:#000000"/>
				<stop  offset="0.5181" style="stop-color:#A8A8A8"/>
				<stop  offset="1" style="stop-color:#000000"/>
			</linearGradient>
			<path style="fill:url(#SVGID_00000064327259421422110780000014742400962212222080_);" d="M372.9,113.4
				c3.1,36.5,3.7,73.1,2.3,109.7C374.7,192,373.7,144.1,372.9,113.4L372.9,113.4z"/>
		</g>
		<g>
			<g>
				
					<linearGradient id="SVGID_00000031172811410141962400000004424059540770258075_" gradientUnits="userSpaceOnUse" x1="365.6129" y1="494.5096" x2="365.6129" y2="409.767">
					<stop  offset="1.281420e-03" style="stop-color:#333399"/>
					<stop  offset="1" style="stop-color:#FF00CC"/>
				</linearGradient>
				<path style="fill:url(#SVGID_00000031172811410141962400000004424059540770258075_);" d="M380.8,409.8h-15.2h-15.2l-9.9,44.3
					c0,0,20.4,19.2,20.4,40.4h2.8v-36.1c-2.1-0.8-3.6-2.8-3.6-5.2c0-3.1,2.5-5.6,5.6-5.6c3.1,0,5.6,2.5,5.6,5.6
					c0,2.4-1.5,4.4-3.6,5.2v36.1h2.8c0-21.3,20.4-40.4,20.4-40.4L380.8,409.8z"/>
				
					<linearGradient id="SVGID_00000150789031814157833520000017423204278896677278_" gradientUnits="userSpaceOnUse" x1="346.2938" y1="453.8535" x2="346.2938" y2="409.767">
					<stop  offset="1.281420e-03" style="stop-color:#333399"/>
					<stop  offset="1" style="stop-color:#FF00CC"/>
				</linearGradient>
				<path style="fill:url(#SVGID_00000150789031814157833520000017423204278896677278_);" d="M340.6,453.9
					c9.9-12.1,13.7-28.9,10-44.1h-0.2L340.6,453.9z"/>
				
					<linearGradient id="SVGID_00000119118757924048751210000007474090381874341017_" gradientUnits="userSpaceOnUse" x1="384.9597" y1="453.7176" x2="384.9597" y2="409.767">
					<stop  offset="0" style="stop-color:#58236B"/>
					<stop  offset="0.6411" style="stop-color:#F6DEFF"/>
					<stop  offset="1" style="stop-color:#58236B"/>
				</linearGradient>
				<path style="fill:url(#SVGID_00000119118757924048751210000007474090381874341017_);" d="M380.8,409.8h-0.1
					c-3.7,15.1,0.1,31.9,9.9,44L380.8,409.8z"/>
			</g>
			
				<linearGradient id="SVGID_00000177484154069023475200000017131042197737728948_" gradientUnits="userSpaceOnUse" x1="365.613" y1="494.5096" x2="365.613" y2="442.6238">
				<stop  offset="0" style="stop-color:#58236B"/>
				<stop  offset="0.6411" style="stop-color:#F6DEFF"/>
				<stop  offset="1" style="stop-color:#58236B"/>
			</linearGradient>
			<path style="fill:url(#SVGID_00000177484154069023475200000017131042197737728948_);" d="M372.7,453.7c0-6.1-3.2-11.1-7.1-11.1
				c-3.9,0-7.1,5-7.1,11.1c0,3.3,0.9,6.2,2.4,8.2v32.6h2.8v-36.1c-2.1-0.8-3.6-2.8-3.6-5.2c0-3.1,2.5-5.6,5.6-5.6
				c3.1,0,5.6,2.5,5.6,5.6c0,2.4-1.5,4.4-3.6,5.2v36.1h2.6v-32.3C371.7,460.1,372.7,457.1,372.7,453.7z"/>
		</g>
		<g>
			
				<linearGradient id="SVGID_00000067926923582421724590000004416372701619368094_" gradientUnits="userSpaceOnUse" x1="365.613" y1="401.6964" x2="365.613" y2="376.4697">
				<stop  offset="1.281420e-03" style="stop-color:#333399"/>
				<stop  offset="1" style="stop-color:#FF00CC"/>
			</linearGradient>
			
				<rect x="351.2" y="376.5" style="fill:url(#SVGID_00000067926923582421724590000004416372701619368094_);" width="28.9" height="25.2"/>
			
				<linearGradient id="SVGID_00000119809652810281955780000016143195038774388895_" gradientUnits="userSpaceOnUse" x1="353.3025" y1="401.6964" x2="353.3025" y2="376.4697">
				<stop  offset="1.281420e-03" style="stop-color:#333399"/>
				<stop  offset="1" style="stop-color:#FF00CC"/>
			</linearGradient>
			<path style="fill:url(#SVGID_00000119809652810281955780000016143195038774388895_);" d="M355.4,389.1c0-7-1.9-12.6-4.2-12.6
				v25.2C353.5,401.7,355.4,396,355.4,389.1z"/>
			
				<linearGradient id="SVGID_00000018916810600352879770000017856098849609481376_" gradientUnits="userSpaceOnUse" x1="377.9237" y1="401.6964" x2="377.9237" y2="376.4697">
				<stop  offset="0" style="stop-color:#58236B"/>
				<stop  offset="0.6411" style="stop-color:#F6DEFF"/>
				<stop  offset="1" style="stop-color:#58236B"/>
			</linearGradient>
			<path style="fill:url(#SVGID_00000018916810600352879770000017856098849609481376_);" d="M375.8,389.1c0,7,1.9,12.6,4.2,12.6
				v-25.2C377.7,376.5,375.8,382.1,375.8,389.1z"/>
		</g>
		<g>
			<g>
				<g>
					
						<linearGradient id="SVGID_00000145756120838033241220000005562052351446588582_" gradientUnits="userSpaceOnUse" x1="341.5628" y1="347.4832" x2="558.665" y2="347.4832" gradientTransform="matrix(-1 0 0 1 654.8762 0)">
						<stop  offset="1.281420e-03" style="stop-color:#333399"/>
						<stop  offset="1" style="stop-color:#FF00CC"/>
					</linearGradient>
					<path style="fill:url(#SVGID_00000145756120838033241220000005562052351446588582_);" d="M312.4,494.7
						c5.6-54.9-14.2-111.8-52.6-151.5c-24.7-25.5-55.9-43.5-84.7-64.2c-28.8-20.7-56.6-45.7-69.3-78.8
						c-20.4,50.8-7.4,115.2,31.8,153.3c28.7,27.9,67.7,42,103.1,60.8C276,433.1,304.3,455.5,312.4,494.7z"/>
					
						<linearGradient id="SVGID_00000094597431920023445260000005591179098760493452_" gradientUnits="userSpaceOnUse" x1="341.5717" y1="339.9242" x2="548.6549" y2="339.9242" gradientTransform="matrix(-1 0 0 1 654.8762 0)">
						<stop  offset="1.281420e-03" style="stop-color:#333399"/>
						<stop  offset="1" style="stop-color:#FF00CC"/>
					</linearGradient>
					<path style="fill:url(#SVGID_00000094597431920023445260000005591179098760493452_);" d="M106.2,201.4
						c12.9,32.6,40.4,57.2,68.9,77.7c28.8,20.7,60,38.7,84.7,64.2c34.6,35.7,54.1,85.5,53.5,135.2c-2.1-43.4-20.8-86-51.9-116.5
						c-20.2-19.9-44.8-34.5-68.6-49.7c-23.8-15.3-47.5-31.8-64.7-54.4C115.8,241.5,107.3,221.5,106.2,201.4z"/>
					
						<linearGradient id="SVGID_00000157303872496501227880000015378936282288687542_" gradientUnits="userSpaceOnUse" x1="360.0636" y1="491.5841" x2="567.3962" y2="254.203" gradientTransform="matrix(-1 0 0 1 654.8762 0)">
						<stop  offset="0" style="stop-color:#58236B"/>
						<stop  offset="0.6411" style="stop-color:#F6DEFF"/>
						<stop  offset="1" style="stop-color:#58236B"/>
					</linearGradient>
					<path style="fill:url(#SVGID_00000157303872496501227880000015378936282288687542_);" d="M240.6,414.3
						c-35.4-18.8-74.4-32.8-103.1-60.8c-33.2-32.3-47.6-83.4-38.8-129.1c-2,38.6,11.5,78,37.7,106.5c20.2,22.1,46.6,37.3,72.7,52.1
						c26,14.8,52.5,29.8,73.1,51.6c15.2,16.1,26.7,36.7,29.9,58.3C303.4,454.9,275.5,432.8,240.6,414.3z"/>
					
						<linearGradient id="SVGID_00000157998749304023968850000002381750487989183630_" gradientUnits="userSpaceOnUse" x1="404.6142" y1="356.4206" x2="516.6865" y2="267.8697" gradientTransform="matrix(-1 0 0 1 654.8762 0)">
						<stop  offset="0" style="stop-color:#000000"/>
						<stop  offset="0.5181" style="stop-color:#A8A8A8"/>
						<stop  offset="1" style="stop-color:#000000"/>
					</linearGradient>
					<path style="fill:url(#SVGID_00000157998749304023968850000002381750487989183630_);" d="M261.4,361.9
						C222,321,164.2,302.5,128.1,257.8C161.9,304.7,220,323.4,261.4,361.9L261.4,361.9z"/>
				</g>
				<g>
					
						<linearGradient id="SVGID_00000070815088783050452370000002167027661038643388_" gradientUnits="userSpaceOnUse" x1="466.448" y1="326.722" x2="618.0647" y2="326.722" gradientTransform="matrix(-0.8978 0.4405 0.4405 0.8978 491.007 -96.4033)">
						<stop  offset="1.281420e-03" style="stop-color:#333399"/>
						<stop  offset="1" style="stop-color:#FF00CC"/>
					</linearGradient>
					<path style="fill:url(#SVGID_00000070815088783050452370000002167027661038643388_);" d="M260.9,495
						c-13.4-36.1-43.3-65.7-79.6-78.8c-23.3-8.4-48.4-10.1-72.9-14.2c-24.5-4.1-49.5-11.2-67.7-28.1c2.9,38.1,30.8,74.5,67.1,86.3
						c26.6,8.7,55.4,5.5,83.3,6.4C219.1,467.6,243.7,472.9,260.9,495z"/>
					
						<linearGradient id="SVGID_00000164501925056745796770000005686962605647148221_" gradientUnits="userSpaceOnUse" x1="466.4542" y1="321.443" x2="611.0737" y2="321.443" gradientTransform="matrix(-0.8978 0.4405 0.4405 0.8978 491.007 -96.4033)">
						<stop  offset="1.281420e-03" style="stop-color:#333399"/>
						<stop  offset="1" style="stop-color:#FF00CC"/>
					</linearGradient>
					<path style="fill:url(#SVGID_00000164501925056745796770000005686962605647148221_);" d="M41.4,374.5
						c18.1,16.4,42.9,23.5,67.1,27.5c24.5,4.1,49.6,5.8,72.9,14.2c32.7,11.8,60.2,37,75.1,68.3c-14.7-26.6-39.5-47.5-68.4-57.1
						c-18.8-6.2-38.7-7.8-58.3-10.1c-19.6-2.2-39.6-5.3-57.3-14.2C59.7,396.8,48.2,386.8,41.4,374.5z"/>
					
						<linearGradient id="SVGID_00000075139575638928597920000015596076318267410879_" gradientUnits="userSpaceOnUse" x1="479.3684" y1="427.357" x2="624.162" y2="261.5784" gradientTransform="matrix(-0.8978 0.4405 0.4405 0.8978 491.007 -96.4033)">
						<stop  offset="0" style="stop-color:#58236B"/>
						<stop  offset="0.6411" style="stop-color:#F6DEFF"/>
						<stop  offset="1" style="stop-color:#58236B"/>
					</linearGradient>
					<path style="fill:url(#SVGID_00000075139575638928597920000015596076318267410879_);" d="M191.1,466.7
						c-28-0.9-56.7,2.3-83.3-6.4c-30.7-10-55.5-37.6-64.1-69c10.6,24.8,31.2,45.3,56.4,55.2c19.5,7.6,40.7,9.1,61.6,10.3
						c20.9,1.3,42.1,2.5,61.7,9.9c14.5,5.4,28,14.8,36.7,27.3C243,472.8,218.7,467.5,191.1,466.7z"/>
					
						<linearGradient id="SVGID_00000078740275907674268130000010293182116120812416_" gradientUnits="userSpaceOnUse" x1="510.4811" y1="332.9635" x2="588.7484" y2="271.1226" gradientTransform="matrix(-0.8978 0.4405 0.4405 0.8978 491.007 -96.4033)">
						<stop  offset="0" style="stop-color:#000000"/>
						<stop  offset="0.5181" style="stop-color:#A8A8A8"/>
						<stop  offset="1" style="stop-color:#000000"/>
					</linearGradient>
					<path style="fill:url(#SVGID_00000078740275907674268130000010293182116120812416_);" d="M188.1,427.4
						c-37.3-13.5-79.2-7.4-115.6-24.3C108.1,422.1,150.3,416,188.1,427.4L188.1,427.4z"/>
				</g>
			</g>
		</g>
	</g>
</g>
<g id="TEXTS">
</g>
</svg>
